HIERARCHY
ROOT Hips
{
 OFFSET 0.000000 0.000000 0.000000
 CHANNELS 6 Xposition Yposition Zposition Yrotation Xrotation Zrotation
 JOINT Chest
 {
  OFFSET 0.000000 9.585900 0.002600
  CHANNELS 3 Yrotation Xrotation Zrotation
  JOINT Chest2
  {
   OFFSET 0.000000 9.601200 -0.005300
   CHANNELS 3 Yrotation Xrotation Zrotation
   JOINT Chest3
   {
    OFFSET 0.000000 9.561800 0.000000
    CHANNELS 3 Yrotation Xrotation Zrotation
    JOINT Chest4
    {
     OFFSET 0.000000 9.552100 0.000000
     CHANNELS 3 Yrotation Xrotation Zrotation
     JOINT Neck
     {
      OFFSET 0.000000 14.453000 0.000000
      CHANNELS 3 Yrotation Xrotation Zrotation
      JOINT Head
      {
       OFFSET 0.000000 8.936500 -0.011300
       CHANNELS 3 Yrotation Xrotation Zrotation
       End Site
       {
        OFFSET 0.000000 17.073600 -0.006000
       }
      }
     }
     JOINT RightCollar
     {
      OFFSET -2.921100 9.558500 0.000000
      CHANNELS 3 Yrotation Xrotation Zrotation
      JOINT RightShoulder
      {
       OFFSET -13.519700 0.000000 0.000000
       CHANNELS 3 Yrotation Xrotation Zrotation
       JOINT RightElbow
       {
        OFFSET 0.000000 -29.696600 0.000000
        CHANNELS 3 Yrotation Xrotation Zrotation
        JOINT RightWrist
        {
         OFFSET 0.000000 -24.004700 0.000000
         CHANNELS 3 Yrotation Xrotation Zrotation
         End Site
         {
          OFFSET 0.000000 -17.728500 0.000000
         }
        }
       }
      }
     }
     JOINT LeftCollar
     {
      OFFSET 2.921100 9.558500 0.000000
      CHANNELS 3 Yrotation Xrotation Zrotation
      JOINT LeftShoulder
      {
       OFFSET 13.519700 0.000000 0.000000
       CHANNELS 3 Yrotation Xrotation Zrotation
       JOINT LeftElbow
       {
        OFFSET 0.000000 -29.696600 0.000000
        CHANNELS 3 Yrotation Xrotation Zrotation
        JOINT LeftWrist
        {
         OFFSET 0.000000 -24.004700 0.000000
         CHANNELS 3 Yrotation Xrotation Zrotation
         End Site
         {
          OFFSET 0.000000 -17.728500 0.000000
         }
        }
       }
      }
     }
    }
   }
  }
 }
 JOINT RightHip
 {
  OFFSET -7.771700 -0.012900 -0.001300
  CHANNELS 3 Yrotation Xrotation Zrotation
  JOINT RightKnee
  {
   OFFSET 0.000000 -40.869800 0.001200
   CHANNELS 3 Yrotation Xrotation Zrotation
   JOINT RightAnkle
   {
    OFFSET 0.000000 -39.717900 0.002100
    CHANNELS 3 Yrotation Xrotation Zrotation
    JOINT RightToe
    {
     OFFSET 0.000000 -4.965400 11.033500
     CHANNELS 3 Yrotation Xrotation Zrotation
     End Site
     {
      OFFSET 0.000000 -1.423100 5.872300
     }
    }
   }
  }
 }
 JOINT LeftHip
 {
  OFFSET 7.771700 -0.012900 -0.001300
  CHANNELS 3 Yrotation Xrotation Zrotation
  JOINT LeftKnee
  {
   OFFSET 0.000000 -40.869800 0.001200
   CHANNELS 3 Yrotation Xrotation Zrotation
   JOINT LeftAnkle
   {
    OFFSET 0.000000 -39.717900 0.002100
    CHANNELS 3 Yrotation Xrotation Zrotation
    JOINT LeftToe
    {
     OFFSET 0.000000 -4.965400 11.033500
     CHANNELS 3 Yrotation Xrotation Zrotation
     End Site
     {
      OFFSET 0.000000 -1.423100 5.872300
     }
    }
   }
  }
 }
}
MOTION
Frames: 5
Frame Time: 0.008333
0.000000 85.388000 0.000000 0.000000 -5.767877 0.000000 0.000000 11.653817 0.000000 0.000000 -5.885947 0.000000 0.000000 -0.000000 0.000000 0.000000 -0.000000 0.000000 0.000000 12.528835 0.000000 0.000000 0.711642 0.000000 0.000000 -0.000000 0.000000 0.000000 0.000000 -90.000000 0.000000 -2.309062 0.000000 0.000000 2.309062 0.000000 0.000000 -0.000000 0.000000 0.000000 -0.000000 90.000000 0.000000 -2.309062 0.000000 0.000000 2.309062 0.000000 0.000000 8.520406 0.000000 0.000000 1.905762 0.000000 -0.000000 -4.658285 0.000000 0.000000 -0.000000 0.000000 0.000000 8.520406 0.000000 0.000000 1.905762 0.000000 -0.000000 -4.658285 0.000000 0.000000 -0.000000 0.000000
-15.374968 58.346749 41.143092 -165.620153 -29.239226 -3.781107 -4.698719 19.666304 -0.045403 -0.595624 2.482327 -0.094234 -0.976908 4.085460 -0.235162 -4.257423 16.929075 -1.234490 -8.384156 14.864000 1.544706 -16.252891 -7.529125 5.973767 2.965894 -3.066618 0.183804 14.386456 -20.599845 -17.377458 117.174720 -73.218550 -82.320528 22.834371 -22.549755 -50.006269 -7.424203 -4.233701 -0.291453 0.420361 -11.457389 1.789474 42.788104 -62.103762 -78.920177 7.799633 -4.956466 31.928169 -0.497261 -40.153750 -14.037816 -1.516471 67.318291 -0.744325 4.891769 7.761396 7.054160 -0.047630 0.346709 0.007043 -16.297575 -50.176509 -8.334740 30.788660 66.935721 31.361153 -10.958972 32.860422 1.058424 0.321196 -19.642175 -6.679622
-15.377644 58.348638 41.141764 -165.614870 -29.238712 -3.787356 -4.683565 19.688632 -0.142065 -0.595641 2.485011 -0.090603 -0.974732 4.082662 -0.203994 -4.250011 16.938231 -1.275374 -8.427498 14.980250 1.785158 -16.406643 -7.272051 6.418735 2.995320 -3.075218 0.160832 14.311017 -20.482791 -17.244197 117.243055 -73.570754 -82.317401 22.788242 -22.604898 -49.556238 -7.406595 -4.212742 -0.289034 0.356593 -11.389343 1.964229 42.615725 -62.208728 -79.017213 7.595980 -4.292688 31.084442 -0.505263 -40.142450 -14.042435 -1.504477 67.310445 -0.720028 4.889728 7.729583 7.045092 -0.047488 0.320427 0.002188 -16.297395 -50.172504 -8.339200 30.792133 66.932738 31.368950 -10.951256 32.853167 1.058030 0.317090 -19.636779 -6.674079
-15.378961 58.351410 41.138526 -165.611433 -29.245133 -3.805692 -4.661888 19.711697 -0.182607 -0.590978 2.492304 -0.112755 -0.978204 4.078999 -0.175922 -4.237116 16.952728 -1.341961 -8.478954 15.087860 2.026046 -16.575801 -7.028815 6.867844 3.020743 -3.091088 0.144214 14.224821 -20.350883 -17.100990 117.277931 -73.901097 -82.274634 22.718175 -22.706490 -49.062846 -7.390563 -4.193882 -0.275645 0.294330 -11.329486 2.161037 42.531225 -62.368845 -79.249551 7.314031 -3.702775 30.332927 -0.533409 -40.113857 -14.027269 -1.492333 67.292752 -0.691942 4.890518 7.662776 7.029662 -0.048570 0.329234 -0.002919 -16.307980 -50.163789 -8.337920 30.834034 66.932305 31.418202 -10.915742 32.849114 1.088632 0.298600 -19.641688 -6.687977
-15.379683 58.354166 41.134767 -165.614404 -29.250550 -3.825934 -4.640111 19.726624 -0.189973 -0.576137 2.504505 -0.155593 -0.972683 4.084466 -0.186824 -4.216435 16.964063 -1.385291 -8.540248 15.188013 2.264849 -16.762370 -6.797339 7.316700 3.040914 -3.112379 0.134278 14.138732 -20.206036 -16.954185 117.295987 -74.221914 -82.198410 22.656674 -22.898998 -48.592048 -7.375844 -4.179566 -0.252186 0.211966 -11.273881 2.377236 42.464877 -62.645682 -79.500028 7.006512 -3.203140 29.740716 -0.565267 -40.089028 -14.002596 -1.477140 67.275219 -0.663382 4.891784 7.604039 7.012633 -0.048339 0.345985 -0.006230 -16.329793 -50.155572 -8.310606 30.840722 66.945496 31.422390 -10.886168 32.838535 1.104793 0.291514 -19.641537 -6.692540
